<?xml version="1.0" encoding="UTF-8" standalone="no"?>
<svg width="295px" height="50px" viewBox="0 0 295 50" version="1.1" xmlns="http://www.w3.org/2000/svg" xmlns:xlink="http://www.w3.org/1999/xlink">
    <!-- Generator: Sketch 46.2 (44496) - http://www.bohemiancoding.com/sketch -->
    <title>CD LOGO DK</title>
    <desc>Created with Sketch.</desc>
    <defs></defs>
    <g id="Page-1" stroke="none" stroke-width="1" fill="none" fill-rule="evenodd">
        <g id="Branding" transform="translate(-578.000000, -105.000000)">
            <g id="CD-LOGO-DK" transform="translate(578.000000, 105.000000)">
                <polygon id="Fill-1" fill="#25408E" points="93.1715068 48.4574151 124.815982 48.4574151 124.815982 34.8803603 93.1715068 34.8803603"></polygon>
                <path d="M174.4696,16.26419 C174.4696,18.3238982 174.092432,19.2599464 173.15153,19.2599464 L171.457637,19.2599464 L171.457637,7.84042585 L172.775708,7.84042585 C173.715936,7.84042585 174.4696,8.58819238 174.4696,9.71252233 L174.4696,16.26419 Z M187.067043,41.5354824 L187.067043,31.6141751 C187.067043,26.1854973 185.938231,24.1264592 180.859247,22.4433145 C185.562409,20.7561495 186.879806,19.0723347 186.879806,15.1412001 L186.879806,9.89946397 C186.879806,4.09489279 182.93637,1.10047647 175.221244,1.10047647 L158.481005,1.10047647 L158.481005,48.4623734 L171.457637,48.4623734 L171.457637,25.810944 L172.587797,25.810944 C173.904521,25.810944 174.468253,26.5600506 174.468253,28.4328172 L174.468253,41.9093657 C174.468253,44.4561942 174.655491,46.1540798 175.595719,48.4623734 L188.573025,48.4623734 C187.473847,46.0951161 187.067043,44.8307475 187.067043,41.5354824 L187.067043,41.5354824 Z" id="Fill-2" fill="#FFFFFF"></path>
                <polygon id="Fill-4" fill="#FFFFFF" points="262.161516 1.10061048 262.161516 7.84055986 251.999507 7.84055986 251.999507 19.2594104 261.221961 19.2594104 261.221961 25.8117481 251.999507 25.8117481 251.999507 41.5356164 262.916527 41.5356164 262.916527 48.4618374 237.904164 48.4618374 237.904164 1.10061048"></polygon>
                <polygon id="Fill-5" fill="#FFFFFF" points="231.118626 48.4621724 212.882507 48.4621724 204.225806 1.10027546 217.203112 1.10027546 222.659265 30.1157609 226.04705 1.10027546 236.576799 1.10027546"></polygon>
                <polygon id="Fill-6" fill="#FFFFFF" points="189.818356 1.10020846 202.786233 1.10020846 202.786233 48.4621054 189.818356 48.4621054"></polygon>
                <g id="Group-13" fill="#FFFFFF">
                    <path d="M143.122146,38.9147484 C143.122146,40.9737865 142.558413,41.9105048 141.617511,41.9105048 L140.110856,41.9105048 L140.110856,7.84022484 L141.428927,7.84022484 C142.369155,7.84022484 143.122146,8.58866141 143.122146,9.71165128 L143.122146,38.9147484 Z M144.996541,1.10027546 L127.135571,1.10027546 L127.135571,48.4615024 L146.878345,48.4615024 C154.027717,48.4615024 156.475947,44.9049211 156.475947,38.5401951 L156.475947,12.1445727 C156.286689,4.65685676 152.523082,1.10027546 144.996541,1.10027546 L144.996541,1.10027546 Z" id="Fill-7"></path>
                    <path d="M77.9456678,16.26419 C77.9456678,18.3238982 77.5678253,19.2599464 76.627597,19.2599464 L74.9337043,19.2599464 L74.9337043,7.84042585 L76.2511016,7.84042585 C77.1913299,7.84042585 77.9456678,8.58819238 77.9456678,9.71252233 L77.9456678,16.26419 Z M90.5437842,41.5354824 L90.5437842,31.6141751 C90.5437842,26.1854973 89.4142979,24.1264592 84.3339669,22.4433145 C89.0378025,20.7561495 90.3551998,19.0723347 90.3551998,15.1412001 L90.3551998,9.89946397 C90.3551998,4.09489279 86.4117637,1.10047647 78.6973116,1.10047647 L61.9570719,1.10047647 L61.9570719,48.4623734 L74.9337043,48.4623734 L74.9337043,25.810944 L76.0631906,25.810944 C77.3792409,25.810944 77.9443208,26.5600506 77.9443208,28.4328172 L77.9443208,41.9093657 C77.9443208,44.4561942 78.1315582,46.1540798 79.0717865,48.4623734 L92.0484189,48.4623734 C90.9499144,46.0951161 90.5437842,44.8307475 90.5437842,41.5354824 L90.5437842,41.5354824 Z" id="Fill-9"></path>
                    <path d="M27.8338562,39.101891 C27.6459452,46.590947 24.0783311,49.3984217 14.2934909,49.3984217 C3.7549863,49.3984217 0.000134703196,46.2157236 0.000134703196,37.4174062 L0.000134703196,10.4602889 C0.000134703196,3.34779631 4.32073973,0.165098273 14.6693128,0.165098273 C22.5723493,0.165098273 27.6459452,4.09489279 27.6459452,10.0864056 L27.6459452,18.3225581 L16.174621,18.3225581 L16.174621,10.0187314 C16.174621,7.76672126 15.2801918,7.4652025 14.6666187,7.4652025 C14.0516986,7.4652025 13.1599635,7.76672126 13.1599635,9.71252233 L13.1599635,39.8114652 C13.1599635,41.2801965 14.0550662,41.9093657 14.8558767,41.9093657 C15.8917443,41.9093657 16.5511164,41.2801965 16.5511164,39.5059261 L16.5511164,28.6190887 L27.8338562,28.6190887 L27.8338562,39.101891 Z" id="Fill-11"></path>
                </g>
                <path d="M41.664911,28.6187537 L44.6762009,28.6187537 L43.1708927,17.3868448 L41.664911,28.6187537 Z M53.8885525,1.10081149 L60.6627763,48.4613684 L47.4982329,48.4613684 L45.6494315,35.1844923 L40.8001164,35.1844923 L39.03079,48.4613684 L27.9359612,48.4613684 L35.8403447,1.10081149 L53.8885525,1.10081149 Z" id="Fill-14" fill="#FFFFFF"></path>
                <path d="M120.245974,29.345749 C120.245974,30.0111004 120.063451,30.3139592 119.759022,30.3139592 L119.096282,30.3139592 L119.096282,19.2957936 L119.698405,19.2957936 C120.002161,19.2957936 120.245974,19.5383487 120.245974,19.9015113 L120.245974,29.345749 Z M120.677024,17.116818 L114.900277,17.116818 L114.900277,32.4333011 L121.285882,32.4333011 C123.598736,32.4333011 124.388771,31.2828395 124.388771,29.2244714 L124.388771,20.6888103 C124.328154,18.2666096 123.110437,17.116818 120.677024,17.116818 L120.677024,17.116818 Z" id="Fill-15" fill="#FFFFFF"></path>
                <polygon id="Fill-17" fill="#FFFFFF" points="109.965628 22.7604452 109.965628 17.1140039 113.353413 17.1140039 113.353413 32.4365173 110.127272 32.4365173 107.856849 26.630606 107.856849 32.4365173 104.735103 32.4365173 104.735103 17.1140039 108.019167 17.1140039"></polygon>
                <path d="M97.6825148,26.0053231 L98.3930742,20.7582266 L99.101613,26.0053231 L97.6825148,26.0053231 Z M101.6832,17.1118597 L96.1960651,17.1118597 L93.6393984,32.4310229 L96.8217614,32.4310229 L97.3969441,28.1313654 L99.3858368,28.1313654 L99.9724692,32.4310229 L103.874821,32.4310229 L101.6832,17.1118597 Z" id="Fill-18" fill="#FFFFFF"></path>
                <path d="M280.142507,16.26419 C280.142507,18.3238982 279.766011,19.2599464 278.824436,19.2599464 L277.131217,19.2599464 L277.131217,7.84042585 L278.449288,7.84042585 C279.390189,7.84042585 280.142507,8.58819238 280.142507,9.71252233 L280.142507,16.26419 Z M293.055155,41.5354824 L293.055155,31.6141751 C293.055155,26.1854973 291.926342,24.1264592 286.846011,22.4433145 C291.549174,20.7561495 292.866571,19.0723347 292.866571,15.1412001 L292.866571,9.89946397 C292.866571,4.09489279 288.923135,1.10047647 281.209356,1.10047647 L264.469116,1.10047647 L264.469116,48.4623734 L277.445749,48.4623734 L277.445749,25.810944 L278.574562,25.810944 C279.889938,25.810944 280.455692,26.5600506 280.455692,28.4328172 L280.455692,41.9093657 C280.455692,44.4561942 280.641582,46.1540798 281.583831,48.4623734 L294.55979,48.4623734 C293.461285,46.0951161 293.055155,44.8307475 293.055155,41.5354824 L293.055155,41.5354824 Z" id="Fill-19" fill="#FFFFFF"></path>
                <polygon id="Fill-21" fill="#C3122F" points="93.1715068 14.6705628 124.815982 14.6705628 124.815982 1.09350804 93.1715068 1.09350804"></polygon>
            </g>
        </g>
    </g>
</svg>