<?xml version="1.0" encoding="UTF-8" standalone="no"?>
<svg width="460px" height="244px" viewBox="0 0 460 244" version="1.1" xmlns="http://www.w3.org/2000/svg" xmlns:xlink="http://www.w3.org/1999/xlink">
    <!-- Generator: Sketch 46.2 (44496) - http://www.bohemiancoding.com/sketch -->
    <title>Group</title>
    <desc>Created with Sketch.</desc>
    <defs>
        <radialGradient cx="49.9005561%" cy="41.3310567%" fx="49.9005561%" fy="41.3310567%" r="42.7502628%" gradientTransform="translate(0.499006,0.413311),scale(0.674318,1.000000),rotate(63.812579),scale(1.000000,1.948787),translate(-0.499006,-0.413311)" id="radialGradient-1">
            <stop stop-color="#E1E042" offset="0%"></stop>
            <stop stop-color="#FF5400" offset="100%"></stop>
        </radialGradient>
    </defs>
    <g id="Logo" stroke="none" stroke-width="1" fill="none" fill-rule="evenodd">
        <g id="Group">
            <g id="Page-1">
                <path d="M133.395,23.863 C49.327,46.955 -9.505,99.67 1.863,141.674 L1.863,141.674 L1.944,141.97 C9.895,170.491 48.32,186.675 98.552,186.829 L98.552,186.829 C106.198,202.252 125.425,213.496 156.232,220.567 L156.232,220.567 C136.95,214.041 125.805,202.425 122.798,185.723 L122.798,185.723 C139.581,184.177 157.242,180.994 175.202,176.061 L175.202,176.061 C259.367,152.942 318.238,100.129 306.693,58.1 L306.693,58.1 C298.795,29.349 259.989,13.093 209.316,13.092 L209.316,13.092 C185.915,13.092 159.985,16.559 133.395,23.863" id="Fill-1" fill="url(#radialGradient-1)"></path>
                <g id="Group-51" transform="translate(18.000000, 0.450000)">
                    <path d="M50.0003,102.4562 L52.3593,101.4442 C54.8213,100.3882 54.9233,98.6432 53.5593,95.4642 L37.0563,57.0002 C35.7363,53.9232 34.4463,52.8982 32.1893,53.8662 L29.6253,54.9662 L50.0003,102.4562 Z M6.8333,47.9852 L31.0403,37.5992 C40.4763,33.5502 48.3033,35.6582 53.5403,47.8642 L71.5393,89.8142 C76.6433,101.7122 73.8333,109.5982 63.8833,113.8672 L39.5743,124.2962 L6.8333,47.9852 Z" id="Fill-3" fill="#FEFEFE"></path>
                    <path d="M47.3767,109.0226 L23.0587,52.3426 L30.2187,49.2716 C33.8427,47.7156 36.5067,48.9186 37.7727,49.7736 C39.7987,51.1426 40.9097,53.3006 41.6507,55.0286 L58.1537,93.4926 C61.7207,101.8056 56.6687,105.0356 54.3317,106.0386 L47.3767,109.0226 Z M13.3997,50.6086 L42.1977,117.7306 L61.9127,109.2726 C71.2147,105.2806 69.8287,98.5086 66.9437,91.7856 L48.9457,49.8346 C46.9687,45.2296 44.6247,42.3456 41.9767,41.2656 C39.6317,40.3086 36.6987,40.6116 33.0117,42.1936 L13.3997,50.6086 Z M36.9507,130.8626 L0.2677,45.3616 L29.0687,33.0046 C35.2557,30.3486 40.8697,30.0136 45.7537,32.0066 C50.9207,34.1146 55.0867,38.7866 58.1347,45.8926 L76.1337,87.8436 C84.3967,107.1026 73.2407,115.2936 65.8547,118.4616 L36.9507,130.8626 Z" id="Fill-5" fill="#FEFEFE"></path>
                    <path d="M58.5398,26.9459 L76.8848,22.0979 L92.8268,82.4199 C93.5388,85.1169 94.8808,86.2639 96.8238,85.7499 C98.9818,85.1799 99.3378,83.4689 98.6538,80.8799 L82.7118,20.5579 L101.0568,15.7099 L117.2268,76.8949 C120.4488,89.0889 115.6018,99.1439 102.9768,102.4799 L99.5238,103.3929 C86.1428,106.9289 77.9608,100.4329 74.7098,88.1319 L58.5398,26.9459 Z" id="Fill-7" fill="#FEFEFE"></path>
                    <path d="M64.6512,30.5026 L79.5442,86.8546 C80.8962,91.9726 83.0922,95.5636 86.0702,97.5276 C89.1222,99.5406 93.2212,99.8866 98.2462,98.5586 L101.6992,97.6466 C106.4832,96.3816 109.8262,94.0276 111.6372,90.6476 C113.4122,87.3346 113.6732,83.0206 112.3922,78.1716 L97.5002,21.8216 L88.8232,24.1146 L103.4872,79.6026 C104.1052,81.9376 104.1252,83.9156 103.5492,85.6486 C102.7282,88.1196 100.7932,89.8726 98.1012,90.5846 C95.5502,91.2586 93.0812,90.7386 91.1512,89.1206 C89.6802,87.8866 88.6172,86.0626 87.9922,83.6966 L73.3282,28.2096 L64.6512,30.5026 Z M92.6392,109.3626 C88.1292,109.3626 84.0882,108.1986 80.5662,105.8756 C75.4722,102.5176 71.8762,96.9776 69.8762,89.4086 L52.4282,23.3896 L80.4412,15.9856 L80.4412,15.9866 L104.6132,9.5976 L122.0602,75.6176 C124.0002,82.9556 123.4432,89.7866 120.4522,95.3706 C117.3222,101.2106 111.7212,105.3406 104.2542,107.3146 L100.8012,108.2266 C97.9342,108.9846 95.2102,109.3626 92.6392,109.3626 L92.6392,109.3626 Z" id="Fill-9" fill="#FEFEFE"></path>
                    <path d="M139.3797,77.5455 L141.9217,77.1915 C144.5757,76.8235 145.1337,75.1685 144.6577,71.7405 L138.8957,30.2845 C138.4347,26.9685 137.4617,25.6385 135.0287,25.9765 L132.2657,26.3605 L139.3797,77.5455 Z M112.1257,13.6095 L138.2147,9.9835 C148.3857,8.5695 155.3787,12.6685 157.2067,25.8235 L163.4917,71.0395 C165.2737,83.8625 160.4807,90.7265 149.7577,92.2165 L123.5577,95.8585 L112.1257,13.6095 Z" id="Fill-11" fill="#FEFEFE"></path>
                    <path d="M135.1155,83.1866 L126.6245,22.0976 L134.3405,21.0246 C136.7925,20.6826 142.6305,20.8356 143.8485,29.5966 L149.6105,71.0526 C150.8555,80.0126 145.1295,81.7946 142.6105,82.1446 L135.1155,83.1866 Z M117.7655,17.8736 L127.8215,90.2186 L149.0695,87.2646 C153.0225,86.7146 155.6635,85.3596 157.1425,83.1216 C158.7765,80.6486 159.2465,76.8146 158.5385,71.7276 L152.2545,26.5126 C150.7345,15.5746 145.8135,13.9736 138.9035,14.9356 L117.7655,17.8736 Z M119.2935,101.4996 L106.4845,9.3456 L137.5265,5.0306 C151.3515,3.1156 160.0905,10.2516 162.1585,25.1356 L168.4445,70.3506 C169.4955,77.9196 168.5005,84.0716 165.4855,88.6346 C162.3745,93.3436 157.3145,96.2146 150.4465,97.1696 L119.2935,101.4996 Z" id="Fill-13" fill="#FEFEFE"></path>
                    <polygon id="Fill-15" fill="#FEFEFE" points="198.4036 5.4733 199.2096 22.6413 182.9336 23.4053 183.5976 37.5633 196.6416 36.9513 197.4676 54.5653 184.4246 55.1773 185.1996 71.6763 202.1446 70.8813 202.9656 88.3833 167.8496 90.0323 163.9556 7.0903"></polygon>
                    <path d="M169.1848,11.8507 L172.6098,84.8027 L197.7368,83.6227 L197.3848,76.1097 L180.4388,76.9057 L179.1958,50.4167 L192.2388,49.8047 L191.8808,42.1807 L178.8378,42.7927 L177.7048,18.6447 L193.9808,17.8817 L193.6438,10.7027 L169.1848,11.8507 Z M163.0898,95.2607 L158.7268,2.3297 L203.1638,0.2447 L204.4388,27.4017 L188.1628,28.1657 L188.3578,32.3347 L201.4018,31.7227 L202.6968,59.3257 L189.6538,59.9377 L189.9598,66.4477 L206.9048,65.6517 L208.1948,93.1437 L163.0898,95.2607 Z" id="Fill-17" fill="#FEFEFE"></path>
                    <path d="M207.9441,99.9425 C209.1971,97.0515 210.8021,92.2665 211.0561,88.6965 L204.9181,88.6435 L205.0751,70.6745 L220.9231,70.8135 L220.8051,84.2065 C220.7451,91.1255 218.3511,96.7965 216.8731,100.0205 L207.9441,99.9425 Z" id="Fill-19" fill="#FEFEFE"></path>
                    <path d="M209.9617,83.6871 L215.8097,83.7381 L215.8787,75.7701 L210.0317,75.7181 L209.9617,83.6871 Z M220.0677,105.0491 L200.3557,104.8761 L203.3567,97.9541 C203.8877,96.7291 204.4557,95.2031 204.9357,93.6441 L199.8747,93.5991 L200.1197,65.6311 L225.9657,65.8571 L225.8057,84.2501 C225.7387,91.8221 223.2697,98.0671 221.4177,102.1041 L220.0677,105.0491 Z" id="Fill-21" fill="#FEFEFE"></path>
                    <path d="M50.0003,103.4562 L52.3593,102.4442 C54.8213,101.3882 54.9233,99.6432 53.5593,96.4642 L37.0563,58.0002 C35.7363,54.9232 34.4463,53.8982 32.1893,54.8662 L29.6253,55.9662 L50.0003,103.4562 Z M6.8333,48.9852 L31.0403,38.5992 C40.4763,34.5502 48.3033,36.6582 53.5403,48.8642 L71.5393,90.8142 C76.6433,102.7122 73.8333,110.5982 63.8833,114.8672 L39.5743,125.2962 L6.8333,48.9852 Z" id="Fill-23" fill="#0A2342"></path>
                    <path d="M58.5398,27.9459 L76.8848,23.0979 L92.8268,83.4199 C93.5388,86.1169 94.8808,87.2639 96.8238,86.7499 C98.9818,86.1799 99.3378,84.4689 98.6538,81.8799 L82.7118,21.5579 L101.0568,16.7099 L117.2268,77.8949 C120.4488,90.0889 115.6018,100.1439 102.9768,103.4799 L99.5238,104.3929 C86.1428,107.9289 77.9608,101.4329 74.7098,89.1319 L58.5398,27.9459 Z" id="Fill-25" fill="#0A2342"></path>
                    <path d="M139.3797,78.5455 L141.9217,78.1915 C144.5757,77.8235 145.1337,76.1685 144.6577,72.7405 L138.8957,31.2845 C138.4347,27.9685 137.4617,26.6385 135.0287,26.9765 L132.2657,27.3605 L139.3797,78.5455 Z M112.1257,14.6095 L138.2147,10.9835 C148.3857,9.5695 155.3787,13.6685 157.2067,26.8235 L163.4917,72.0395 C165.2737,84.8625 160.4807,91.7265 149.7577,93.2165 L123.5577,96.8585 L112.1257,14.6095 Z" id="Fill-27" fill="#0A2342"></path>
                    <polygon id="Fill-29" fill="#0A2342" points="198.4036 6.4733 199.2096 23.6413 182.9336 24.4053 183.5976 38.5633 196.6416 37.9513 197.4676 55.5653 184.4246 56.1773 185.1996 72.6763 202.1446 71.8813 202.9656 89.3833 167.8496 91.0323 163.9556 8.0903"></polygon>
                    <path d="M207.9441,100.9425 C209.1971,98.0515 210.8021,93.2665 211.0561,89.6965 L204.9181,89.6435 L205.0751,71.6745 L220.9231,71.8135 L220.8051,85.2065 C220.7451,92.1255 218.3511,97.7965 216.8731,101.0205 L207.9441,100.9425 Z" id="Fill-31" fill="#0A2342"></path>
                    <polygon id="Fill-33" fill="#FEFEFE" points="67.824 169.9596 53.035 149.6366 59.528 146.3196 67.46 159.0036 61.993 145.0596 67.787 142.0996 75.948 154.9266 70.253 140.8396 76.499 137.6476 84.302 161.5406 77.316 165.1096 70.434 154.5826 74.933 166.3266"></polygon>
                    <path d="M75.3709,128.0905 L82.2749,125.4735 L86.7249,137.2105 C87.1609,135.3675 88.0659,133.1975 90.3099,132.3475 L90.5689,132.2495 C93.3299,131.2025 95.3459,133.0045 96.0819,134.9465 L103.3779,154.1925 L96.3869,156.8425 L90.0569,140.1425 C89.8109,139.4955 89.4259,138.9995 88.6059,139.3105 C87.8289,139.6045 87.8699,140.2315 88.1639,141.0075 L94.4449,157.5785 L87.5409,160.1955 L75.3709,128.0905 Z" id="Fill-35" fill="#FEFEFE"></path>
                    <path d="M106.2195,136.5748 L108.2115,135.9888 L107.4165,133.2878 C107.1295,132.3138 106.8095,131.8798 105.9685,132.1268 C105.1275,132.3748 105.1375,132.9008 105.4245,133.8748 L106.2195,136.5748 Z M114.3295,132.2628 L116.1285,138.3718 L107.4965,140.9128 L108.9695,145.9148 C109.2425,146.8448 109.6255,147.1648 110.3335,146.9558 C111.0425,146.7478 111.1075,146.1518 110.8725,145.3548 L109.8825,141.9908 L116.6105,140.0098 L117.5745,143.2848 C118.8385,147.5788 116.6655,150.8168 112.5485,152.0288 L111.1765,152.4318 C106.8385,153.7088 103.3975,152.3168 102.0425,147.7138 L98.8375,136.8238 C97.6125,132.6628 99.0095,129.0768 103.8785,127.6428 L105.2515,127.2398 C109.5005,125.9888 112.8705,127.3048 114.3295,132.2628 L114.3295,132.2628 Z" id="Fill-37" fill="#FEFEFE"></path>
                    <path d="M122.3445,126.6437 C122.6865,125.4317 123.5055,122.9767 125.9365,122.4307 L126.3415,122.3387 C128.5025,121.8527 129.8065,123.0247 130.2325,124.9157 L132.1985,133.6477 L125.7165,135.1067 L124.4795,129.6157 C124.3275,128.9407 124.1215,128.6557 123.5815,128.7777 C123.0865,128.8887 123.0225,129.2337 123.1745,129.9097 L127.1865,147.7347 L119.9845,149.3557 L114.5335,125.1387 L121.6455,123.5377 L122.3445,126.6437 Z" id="Fill-39" fill="#FEFEFE"></path>
                    <path d="M139.8377,128.8483 L141.8867,128.5123 L141.4317,125.7343 C141.2677,124.7323 141.0037,124.2613 140.1377,124.4033 C139.2727,124.5443 139.2177,125.0683 139.3817,126.0703 L139.8377,128.8483 Z M148.4207,125.5713 L149.4507,131.8573 L140.5687,133.3123 L141.4117,138.4583 C141.5687,139.4153 141.9087,139.7803 142.6377,139.6613 C143.3667,139.5413 143.5047,138.9573 143.3707,138.1383 L142.8037,134.6763 L149.7267,133.5423 L150.2787,136.9123 C151.0027,141.3303 148.4447,144.2753 144.2087,144.9693 L142.7967,145.2013 C138.3337,145.9313 135.0907,144.1243 134.3147,139.3883 L132.4797,128.1833 C131.7777,123.9013 133.6087,120.5153 138.6187,119.6943 L140.0307,119.4623 C144.4027,118.7463 147.5857,120.4703 148.4207,125.5713 L148.4207,125.5713 Z" id="Fill-41" fill="#FEFEFE"></path>
                    <path d="M147.7161,120.1876 C147.9711,118.9436 148.3261,117.0366 148.1971,115.7036 L145.9561,115.9986 L145.1141,109.5936 L151.1071,108.8066 L151.7561,113.7466 C152.0801,116.2166 151.5181,118.6646 151.1931,119.7306 L147.7161,120.1876 Z" id="Fill-43" fill="#FEFEFE"></path>
                    <path d="M168.0032,124.1075 L161.5752,124.7485 L161.3512,122.4985 C161.2822,121.8105 161.0582,121.4155 160.4152,121.4795 C159.7262,121.5475 159.5842,121.9795 159.6522,122.6685 L159.7162,123.3105 C159.8082,124.2295 160.0282,124.5785 160.9192,125.1385 L164.8662,127.5265 C168.1672,129.4705 169.0982,131.3715 169.3822,134.2175 L169.4642,135.0445 C169.8772,139.1765 167.6632,142.0865 163.0712,142.5445 L161.4192,142.7095 C156.9652,143.1535 154.4592,141.2705 154.0882,137.5515 L153.7452,134.1075 L160.3102,133.4535 L160.5992,136.3455 C160.6762,137.1265 161.0392,137.5075 161.6822,137.4425 L161.7282,137.4385 C162.3242,137.3785 162.5082,136.8975 162.4352,136.1625 L162.3622,135.4275 C162.2522,134.3255 161.9082,133.6645 160.9212,133.0675 L157.1802,130.8905 C154.1312,129.1535 153.3192,127.0555 153.0682,124.5295 L152.9852,123.7035 C152.6012,119.8465 154.6312,117.4185 159.1302,116.9705 L160.7372,116.8095 C165.0532,116.3795 167.3762,117.8175 167.7192,121.2605 L168.0032,124.1075 Z" id="Fill-45" fill="#FEFEFE"></path>
                    <path d="M174.7737,116.0192 L182.0617,115.8512 L182.1327,118.9412 C182.9787,117.5832 184.5917,115.5152 186.9447,115.4602 L187.2217,115.4542 C189.6197,115.3982 190.9037,117.0302 191.4017,118.5882 C192.4297,117.1332 194.0487,115.2962 196.4467,115.2402 L196.7237,115.2342 C199.7687,115.1642 200.8887,117.7222 200.9347,119.7062 L201.4097,140.2322 L193.9837,140.4042 L193.5737,122.6912 C193.5547,121.8612 193.4477,121.2632 192.5717,121.2842 C191.8797,121.3002 191.7057,121.7652 191.6747,122.4122 L192.0927,140.4482 L184.6197,140.6212 L184.2097,122.9082 C184.1907,122.0782 184.0847,121.4802 183.2077,121.5002 C182.4237,121.5192 182.2987,122.1222 182.3187,122.9522 L182.7287,140.6652 L175.3487,140.8352 L174.7737,116.0192 Z" id="Fill-47" fill="#FEFEFE"></path>
                    <path d="M201.9055,115.5475 L209.1935,115.7815 L210.2925,129.0225 L212.0075,115.8715 L219.1565,116.1005 L212.5305,145.6245 C211.8845,148.4665 210.2865,149.3395 208.6725,149.2875 L202.1685,149.0785 L202.3695,142.8055 L204.9995,142.8895 C205.6915,142.9115 205.8385,142.6395 205.9075,141.9025 L205.9735,141.3045 C206.0345,140.8455 206.0015,140.4285 205.8465,139.5005 L201.9055,115.5475 Z" id="Fill-49" fill="#FEFEFE"></path>
                </g>
            </g>
            <g id="CD-LOGO-DK" transform="translate(165.000000, 194.000000)">
                <polygon id="Fill-1" fill="#25408E" points="93.1715068 48.4574151 124.815982 48.4574151 124.815982 34.8803603 93.1715068 34.8803603"></polygon>
                <path d="M174.4696,16.26419 C174.4696,18.3238982 174.092432,19.2599464 173.15153,19.2599464 L171.457637,19.2599464 L171.457637,7.84042585 L172.775708,7.84042585 C173.715936,7.84042585 174.4696,8.58819238 174.4696,9.71252233 L174.4696,16.26419 Z M187.067043,41.5354824 L187.067043,31.6141751 C187.067043,26.1854973 185.938231,24.1264592 180.859247,22.4433145 C185.562409,20.7561495 186.879806,19.0723347 186.879806,15.1412001 L186.879806,9.89946397 C186.879806,4.09489279 182.93637,1.10047647 175.221244,1.10047647 L158.481005,1.10047647 L158.481005,48.4623734 L171.457637,48.4623734 L171.457637,25.810944 L172.587797,25.810944 C173.904521,25.810944 174.468253,26.5600506 174.468253,28.4328172 L174.468253,41.9093657 C174.468253,44.4561942 174.655491,46.1540798 175.595719,48.4623734 L188.573025,48.4623734 C187.473847,46.0951161 187.067043,44.8307475 187.067043,41.5354824 L187.067043,41.5354824 Z" id="Fill-2" fill="#FFFFFF"></path>
                <polygon id="Fill-4" fill="#FFFFFF" points="262.161516 1.10061048 262.161516 7.84055986 251.999507 7.84055986 251.999507 19.2594104 261.221961 19.2594104 261.221961 25.8117481 251.999507 25.8117481 251.999507 41.5356164 262.916527 41.5356164 262.916527 48.4618374 237.904164 48.4618374 237.904164 1.10061048"></polygon>
                <polygon id="Fill-5" fill="#FFFFFF" points="231.118626 48.4621724 212.882507 48.4621724 204.225806 1.10027546 217.203112 1.10027546 222.659265 30.1157609 226.04705 1.10027546 236.576799 1.10027546"></polygon>
                <polygon id="Fill-6" fill="#FFFFFF" points="189.818356 1.10020846 202.786233 1.10020846 202.786233 48.4621054 189.818356 48.4621054"></polygon>
                <g id="Group-13" fill="#FFFFFF">
                    <path d="M143.122146,38.9147484 C143.122146,40.9737865 142.558413,41.9105048 141.617511,41.9105048 L140.110856,41.9105048 L140.110856,7.84022484 L141.428927,7.84022484 C142.369155,7.84022484 143.122146,8.58866141 143.122146,9.71165128 L143.122146,38.9147484 Z M144.996541,1.10027546 L127.135571,1.10027546 L127.135571,48.4615024 L146.878345,48.4615024 C154.027717,48.4615024 156.475947,44.9049211 156.475947,38.5401951 L156.475947,12.1445727 C156.286689,4.65685676 152.523082,1.10027546 144.996541,1.10027546 L144.996541,1.10027546 Z" id="Fill-7"></path>
                    <path d="M77.9456678,16.26419 C77.9456678,18.3238982 77.5678253,19.2599464 76.627597,19.2599464 L74.9337043,19.2599464 L74.9337043,7.84042585 L76.2511016,7.84042585 C77.1913299,7.84042585 77.9456678,8.58819238 77.9456678,9.71252233 L77.9456678,16.26419 Z M90.5437842,41.5354824 L90.5437842,31.6141751 C90.5437842,26.1854973 89.4142979,24.1264592 84.3339669,22.4433145 C89.0378025,20.7561495 90.3551998,19.0723347 90.3551998,15.1412001 L90.3551998,9.89946397 C90.3551998,4.09489279 86.4117637,1.10047647 78.6973116,1.10047647 L61.9570719,1.10047647 L61.9570719,48.4623734 L74.9337043,48.4623734 L74.9337043,25.810944 L76.0631906,25.810944 C77.3792409,25.810944 77.9443208,26.5600506 77.9443208,28.4328172 L77.9443208,41.9093657 C77.9443208,44.4561942 78.1315582,46.1540798 79.0717865,48.4623734 L92.0484189,48.4623734 C90.9499144,46.0951161 90.5437842,44.8307475 90.5437842,41.5354824 L90.5437842,41.5354824 Z" id="Fill-9"></path>
                    <path d="M27.8338562,39.101891 C27.6459452,46.590947 24.0783311,49.3984217 14.2934909,49.3984217 C3.7549863,49.3984217 0.000134703196,46.2157236 0.000134703196,37.4174062 L0.000134703196,10.4602889 C0.000134703196,3.34779631 4.32073973,0.165098273 14.6693128,0.165098273 C22.5723493,0.165098273 27.6459452,4.09489279 27.6459452,10.0864056 L27.6459452,18.3225581 L16.174621,18.3225581 L16.174621,10.0187314 C16.174621,7.76672126 15.2801918,7.4652025 14.6666187,7.4652025 C14.0516986,7.4652025 13.1599635,7.76672126 13.1599635,9.71252233 L13.1599635,39.8114652 C13.1599635,41.2801965 14.0550662,41.9093657 14.8558767,41.9093657 C15.8917443,41.9093657 16.5511164,41.2801965 16.5511164,39.5059261 L16.5511164,28.6190887 L27.8338562,28.6190887 L27.8338562,39.101891 Z" id="Fill-11"></path>
                </g>
                <path d="M41.664911,28.6187537 L44.6762009,28.6187537 L43.1708927,17.3868448 L41.664911,28.6187537 Z M53.8885525,1.10081149 L60.6627763,48.4613684 L47.4982329,48.4613684 L45.6494315,35.1844923 L40.8001164,35.1844923 L39.03079,48.4613684 L27.9359612,48.4613684 L35.8403447,1.10081149 L53.8885525,1.10081149 Z" id="Fill-14" fill="#FFFFFF"></path>
                <path d="M120.245974,29.345749 C120.245974,30.0111004 120.063451,30.3139592 119.759022,30.3139592 L119.096282,30.3139592 L119.096282,19.2957936 L119.698405,19.2957936 C120.002161,19.2957936 120.245974,19.5383487 120.245974,19.9015113 L120.245974,29.345749 Z M120.677024,17.116818 L114.900277,17.116818 L114.900277,32.4333011 L121.285882,32.4333011 C123.598736,32.4333011 124.388771,31.2828395 124.388771,29.2244714 L124.388771,20.6888103 C124.328154,18.2666096 123.110437,17.116818 120.677024,17.116818 L120.677024,17.116818 Z" id="Fill-15" fill="#FFFFFF"></path>
                <polygon id="Fill-17" fill="#FFFFFF" points="109.965628 22.7604452 109.965628 17.1140039 113.353413 17.1140039 113.353413 32.4365173 110.127272 32.4365173 107.856849 26.630606 107.856849 32.4365173 104.735103 32.4365173 104.735103 17.1140039 108.019167 17.1140039"></polygon>
                <path d="M97.6825148,26.0053231 L98.3930742,20.7582266 L99.101613,26.0053231 L97.6825148,26.0053231 Z M101.6832,17.1118597 L96.1960651,17.1118597 L93.6393984,32.4310229 L96.8217614,32.4310229 L97.3969441,28.1313654 L99.3858368,28.1313654 L99.9724692,32.4310229 L103.874821,32.4310229 L101.6832,17.1118597 Z" id="Fill-18" fill="#FFFFFF"></path>
                <path d="M280.142507,16.26419 C280.142507,18.3238982 279.766011,19.2599464 278.824436,19.2599464 L277.131217,19.2599464 L277.131217,7.84042585 L278.449288,7.84042585 C279.390189,7.84042585 280.142507,8.58819238 280.142507,9.71252233 L280.142507,16.26419 Z M293.055155,41.5354824 L293.055155,31.6141751 C293.055155,26.1854973 291.926342,24.1264592 286.846011,22.4433145 C291.549174,20.7561495 292.866571,19.0723347 292.866571,15.1412001 L292.866571,9.89946397 C292.866571,4.09489279 288.923135,1.10047647 281.209356,1.10047647 L264.469116,1.10047647 L264.469116,48.4623734 L277.445749,48.4623734 L277.445749,25.810944 L278.574562,25.810944 C279.889938,25.810944 280.455692,26.5600506 280.455692,28.4328172 L280.455692,41.9093657 C280.455692,44.4561942 280.641582,46.1540798 281.583831,48.4623734 L294.55979,48.4623734 C293.461285,46.0951161 293.055155,44.8307475 293.055155,41.5354824 L293.055155,41.5354824 Z" id="Fill-19" fill="#FFFFFF"></path>
                <polygon id="Fill-21" fill="#C3122F" points="93.1715068 14.6705628 124.815982 14.6705628 124.815982 1.09350804 93.1715068 1.09350804"></polygon>
            </g>
        </g>
    </g>
</svg>