<?xml version="1.0" encoding="UTF-8" standalone="no"?>
<svg width="72px" height="32px" viewBox="0 0 72 32" version="1.1" xmlns="http://www.w3.org/2000/svg" xmlns:xlink="http://www.w3.org/1999/xlink">
    <!-- Generator: Sketch 46.2 (44496) - http://www.bohemiancoding.com/sketch -->
    <title>Group</title>
    <desc>Created with Sketch.</desc>
    <defs></defs>
    <g id="Cars" stroke="none" stroke-width="1" fill="none" fill-rule="evenodd">
        <g id="Group" fill-rule="nonzero">
            <path d="M3.33617021,27.7446809 C3.33617021,27.7446809 6.9787234,28.6411348 9.64539007,29.0723404 C11.9148936,29.4468085 21.3560284,29.3673759 22.0822695,29.3673759 C23.648227,29.3673759 24.2609929,28.8794326 25.3049645,28.8794326 C26.3489362,28.8794326 52.9248227,28.8907801 52.9248227,28.8907801 C52.9248227,28.8907801 58.5304965,29.129078 59.3702128,29.129078 C60.2099291,29.129078 66.4624113,29.1858156 67.3929078,28.9475177 C67.6879433,28.8794326 68.2780142,28.6978723 68.8567376,27.8468085 C69.9687943,26.212766 70.9673759,23.5460993 70.9673759,23.5460993 C70.9673759,23.5460993 71.7617021,18.4851064 71.7617021,16.5673759 L71.7617021,15.4212766 C71.7617021,14.5815603 71.6595745,11.3815603 71.1602837,9.18014184 C70.5248227,6.37730496 69.2312057,4.56170213 69.2312057,4.56170213 C69.2568666,4.60789188 69.188577,4.39500741 68.8567376,4.05106383 C68.4548649,3.63453247 67.7471812,3.0630301 67.3929078,3.0070922 C66.5191489,2.87092199 55.341844,2.83687943 54.5021277,2.83687943 C53.6624113,2.83687943 51.9489362,3.05248227 51.9489362,3.05248227 C51.9489362,3.05248227 26.8595745,3.10921986 25.8156028,3.10921986 C24.7716312,3.10921986 23.6595745,2.6212766 22.093617,2.6212766 C21.4241135,2.6212766 11.7560284,2.51914894 9.65673759,2.85957447 C6.83120567,3.31347518 3.34751773,4.05106383 3.34751773,4.05106383 C0.35177305,6.45673759 0.124822695,15.9886525 0.124822695,15.9886525 C0.124822695,15.9886525 0.0453900709,25.0666667 3.33617021,27.7446809 Z" id="Shape" fill="#973232"></path>
            <path d="M51.9035461,28.8680851 C51.9035461,28.8680851 60.8680851,28.6978723 63.5914894,28.5163121 C66.3148936,28.3347518 67.551773,27.9602837 67.551773,27.9602837 L67.9602837,27.6425532 C67.9602837,27.6425532 66.6893617,28.6638298 67.4269504,28.3460993 C68.164539,28.0283688 68.9702128,27.6765957 68.9702128,27.6765957 L67.3815603,28.9475177 L54.4907801,29.1631206 L51.9035461,28.8680851 Z" id="Shape" fill="#531C1C"></path>
            <path d="M3.33617021,27.7446809 L8.90780142,28.9929078 L10.8255319,29.2539007 L21.9460993,29.3900709 L24.8624113,28.9134752 C24.8624113,28.9134752 19.4269504,28.7659574 15.5914894,28.470922 C9.22553191,27.9943262 5.46950355,27.2680851 5.46950355,27.2680851 C5.46950355,27.2680851 3.69929078,28.0056738 3.33617021,27.7446809 Z" id="Shape" fill="#531C1C"></path>
            <path d="M7.92056738,14.2751773 C7.92056738,14.2751773 6.45673759,14.1617021 5.03829787,13.9007092 C3.63120567,13.6397163 1.50921986,13.1404255 1.50921986,13.1404255 C1.50921986,13.1404255 1.67943262,11.0297872 2.13333333,9.04397163 C2.6212766,6.93333333 4.06241135,5.68510638 5.42411348,5.46950355 C6.7858156,5.25390071 5.66241135,4.62978723 5.66241135,4.62978723 C5.66241135,4.62978723 8.71489362,4.13049645 11.5177305,3.85815603 C14.3205674,3.5858156 10.9957447,3.41560284 10.7574468,3.35886525 C10.5078014,3.30212766 9.87234043,2.99574468 10.6212766,2.99574468 C11.3815603,2.99574468 19.7900709,2.80283688 20.4595745,2.80283688 C21.129078,2.80283688 20.2326241,3.08652482 19.9148936,3.13191489 C19.5971631,3.18865248 19.6879433,3.21134752 20.3687943,3.17730496 C21.0496454,3.14326241 23.977305,3.06382979 25.4978723,3.0751773 C27.0184397,3.08652482 53.2085106,3.2 53.2085106,3.2 C53.2085106,3.2 56.4765957,3.05248227 61.5829787,3.52907801 C62.7404255,3.64255319 66.2014184,3.56312057 67.1546099,3.9035461 C67.1546099,3.9035461 68.1304965,6.50212766 69.106383,7.96595745 C69.3219858,8.28368794 70.3659574,8.54468085 70.4567376,8.71489362 C70.5134752,8.81702128 71.2624113,13.151773 71.1829787,13.435461 C71.0921986,13.7531915 65.0893617,14.7177305 59.9148936,15.1375887 C54.7404255,15.5574468 50.848227,15.7730496 50.848227,15.7730496 L40.3404255,14.4907801 C40.3404255,14.4907801 36.6865248,14.6496454 29.3787234,14.4907801 C22.0822695,14.3319149 18.2468085,13.8212766 18.2468085,13.8212766 L7.92056738,14.2751773 Z" id="Shape" fill="#D64A4A"></path>
            <path d="M14.9900709,5.3787234 C14.9900709,5.3787234 17.8496454,4.62978723 19.1886525,4.50496454 C20.5276596,4.38014184 39.3304965,3.64255319 48.8056738,4.2212766 C48.8056738,4.2212766 39.8865248,6.05957447 35.6992908,6.18439716 C31.5234043,6.28652482 20.6184397,6.68368794 14.9900709,5.3787234 Z" id="Shape" fill="#000000"></path>
            <path d="M67.8868636,4.29805792 C67.9049511,4.31443904 67.9259571,4.33428936 67.9496816,4.3576976 C68.0171123,4.42422924 68.0930188,4.50605747 68.1758011,4.60389114 C68.4116786,4.8826554 68.6558712,5.23395012 68.8955794,5.66342723 C69.0001797,5.85083612 69.1074767,6.05809745 69.2165705,6.28190737 C69.394476,6.64688688 69.5686196,7.03777533 69.7318273,7.42864297 C69.7889441,7.56543238 69.8406185,7.69245893 69.8859496,7.80647515 C69.9018223,7.84639796 69.9157706,7.88184891 69.9276818,7.91242193 C69.9348397,7.93079471 69.9397349,7.94347675 69.9422544,7.95006189 L69.9709912,8.02516926 L69.0296846,7.83938508 L62.8747316,4.17021761 L62.9792824,4.1440799 L63.0252457,4.13259311 C64.0379766,3.89363412 65.0744843,3.79083997 66.1234677,3.82504597 L67.144972,3.85909669 C67.44932,3.87080239 67.7237655,4.03265064 67.8701592,4.28319801 C67.8744057,4.2868866 67.8799899,4.29183273 67.8868636,4.29805792 Z" id="Shape-Copy" fill="#FFFFFF"></path>
            <path d="M5.67375887,4.64113475 C5.67375887,4.64113475 5.94609929,4.59574468 6.42269504,4.51631206 C6.89929078,4.44822695 7.58014184,4.33475177 8.39716312,4.23262411 C8.80567376,4.17588652 9.24822695,4.11914894 9.7248227,4.06241135 C10.1900709,4.00567376 10.6893617,3.94893617 11.2,3.89219858 C11.7106383,3.83546099 12.2439716,3.7787234 12.7886525,3.72198582 C13.3333333,3.66524823 13.8780142,3.61985816 14.422695,3.56312057 C14.9673759,3.5177305 15.5234043,3.47234043 16.0680851,3.42695035 C16.612766,3.38156028 17.1460993,3.35886525 17.6567376,3.31347518 C18.1673759,3.27943262 18.6666667,3.25673759 19.1432624,3.23404255 C19.6198582,3.21134752 20.0624113,3.18865248 20.4822695,3.17730496 C20.8907801,3.16595745 21.2765957,3.14326241 21.6056738,3.13191489 C21.9460993,3.12056738 22.2297872,3.12056738 22.4794326,3.10921986 C22.9560284,3.09787234 23.2397163,3.09787234 23.2397163,3.09787234 C23.2397163,3.09787234 22.9673759,3.10921986 22.4794326,3.12056738 C22.2411348,3.13191489 21.9460993,3.14326241 21.6056738,3.15460993 C21.2652482,3.16595745 20.8907801,3.18865248 20.4822695,3.2 C20.0737589,3.22269504 19.6198582,3.23404255 19.1546099,3.26808511 C18.6780142,3.30212766 18.1787234,3.3248227 17.6680851,3.35886525 C17.1574468,3.3929078 16.6241135,3.42695035 16.0794326,3.47234043 C15.5347518,3.5177305 14.9900709,3.56312057 14.4453901,3.60851064 C13.9007092,3.65390071 13.3446809,3.69929078 12.8113475,3.75602837 C12.2666667,3.80141844 11.7446809,3.85815603 11.222695,3.91489362 C10.7120567,3.97163121 10.212766,4.02836879 9.74751773,4.08510638 C9.2822695,4.14184397 8.82836879,4.19858156 8.41985816,4.25531915 C7.60283688,4.35744681 6.92198582,4.45957447 6.44539007,4.52765957 C5.94609929,4.59574468 5.67375887,4.64113475 5.67375887,4.64113475 Z" id="Shape" fill="#231F20"></path>
            <path d="M51.3413543,29.0041279 C51.026361,29.0039838 51.026361,29.0039838 50.5533613,29.0037677 C49.704126,29.0033799 48.7560875,29.0029477 47.7329271,29.0024823 C44.8096117,29.0011525 41.8699843,28.9998227 39.1034952,28.9985815 C38.8992933,28.99849 38.8992933,28.99849 38.6950309,28.9983984 C31.0227987,28.9949595 26.2525072,28.9929078 25.8042553,28.9929078 C24.8483501,28.9929078 23.7702961,29.1404836 22.10496,29.4785593 C21.8043577,29.5399067 18.9343547,29.5621082 16.0736418,29.5233939 C12.5719044,29.4760045 9.96061104,29.3565799 9.19872291,29.1712557 C9.10420428,29.1482747 9.00881542,29.1252056 8.91258416,29.1020531 C7.68787363,28.8073966 6.37548878,28.5105695 5.06307695,28.226352 C4.60371203,28.1268714 4.17716579,28.036075 3.79438573,27.9558079 C3.66042975,27.927718 3.54151898,27.9029519 3.43902164,27.8817403 C3.3589013,27.8652207 3.29979043,27.8480711 3.26168902,27.8302914 C2.01689241,26.7473184 1.16220369,24.8505106 0.628431601,22.3706713 C0.349810274,21.076231 0.174158062,19.692144 0.0814604241,18.2941472 C0.0210745727,17.3834526 0.00397019395,16.6113158 0.0103554543,16.0537728 C0.0118212887,15.9766034 0.0124563947,15.9648781 0.013433664,15.9475313 C0.0150567996,15.9187203 0.0170477336,15.8847342 0.0194213698,15.8457576 C0.0261958195,15.7345169 0.0346798583,15.6055317 0.0449927859,15.460279 C0.0744447948,15.0454614 0.112643503,14.5833138 0.160545085,14.085646 C0.297427359,12.6635238 0.484599504,11.2412996 0.729809587,9.91321869 C0.788160861,9.59718269 0.849288362,9.28971027 0.913259659,8.99158479 C1.49103304,6.29898706 2.25790521,4.51398483 3.26971428,3.95186868 C4.46267183,3.66229495 5.28330349,3.49589652 6.26668553,3.32897294 C6.37007804,3.31142264 6.47782373,3.29340278 6.59708591,3.2736832 C6.64734903,3.26537237 7.50068983,3.12591727 7.78121344,3.07894091 C8.28304932,2.99490369 8.75393746,2.91227858 9.27345446,2.81599003 C10.6649478,2.56474818 21.3214968,2.37860759 22.0899194,2.50940294 C23.8065629,2.80090845 25.7648322,2.99574468 26.8595745,2.99574468 L51.3413808,2.99574468 C51.5588614,2.99574468 51.5707409,2.99574468 51.6123099,2.99574468 C51.7657704,2.97566185 51.8469974,2.96526692 51.9362315,2.9540738 C52.1911629,2.92209635 52.4592357,2.89011946 52.7278943,2.86026851 C52.8983856,2.84132504 53.063836,2.82383903 53.2224761,2.80811108 C53.7687125,2.75395593 54.2042678,2.72340426 54.4907801,2.72340426 C54.6497874,2.72340426 55.5393983,2.72658039 56.4241295,2.73085239 C57.7730549,2.73736579 59.156792,2.74619332 60.4733107,2.75745096 C64.1846496,2.78918687 66.6999608,2.83391929 67.3913906,2.89404362 C67.5435886,2.95593119 67.600647,2.98260923 67.6620696,3.01210666 C67.8376608,3.09643219 68.013305,3.18657426 68.177638,3.27903854 C68.3404332,3.37063753 68.4834544,3.45973287 68.6015262,3.5449941 C68.6674888,3.59262657 68.7252683,3.63879303 68.7748403,3.68399394 C69.273038,4.14386877 70.3712433,6.40171727 70.9619441,8.24900031 C71.5374552,10.0415757 71.8638298,13.2312985 71.8638298,15.4326241 L71.8638298,16.5787234 C71.8638298,18.1963415 71.551188,20.9580108 71.0216939,23.5240172 C70.690465,25.1022258 69.3959651,27.5446783 68.7740043,28.1011672 C68.6810627,28.1852573 68.4726158,28.3385609 68.1760994,28.5449863 C67.9779872,28.6823851 67.8179016,28.7914308 67.6578291,28.899186 C67.6018137,28.9368936 67.5497958,28.9717501 67.5031038,29.0029145 C65.653127,29.1408107 62.9409862,29.1984175 59.6566477,29.2368717 C57.5754471,29.2612391 55.2182009,29.2765957 54.4907801,29.2765957 C54.2042678,29.2765957 53.7687125,29.2460441 53.2224761,29.1918889 C53.063836,29.176161 52.8983856,29.158675 52.7278943,29.1397315 C52.4592357,29.1098805 52.1911629,29.0779037 51.9362315,29.0459262 C51.8469974,29.0347331 51.7657704,29.0243382 51.6941222,29.0150072 C51.5707412,29.0042328 51.5588892,29.0042274 51.3413543,29.0041279 Z M3.84096307,27.7336886 C4.2242124,27.8140541 4.65124176,27.9049533 5.11111211,28.0045433 C6.42508675,28.2890993 7.73908838,28.5862921 8.96567189,28.8813992 C9.06207848,28.9045939 9.15764405,28.9277057 9.25235195,28.9507328 C9.9892597,29.1299806 12.6010459,29.2494277 16.0767128,29.2964643 C18.9013909,29.334691 21.7842093,29.3123904 22.0596937,29.2561691 C23.7388174,28.9152944 24.8297362,28.7659574 25.8042553,28.7659574 C26.2525641,28.7659574 31.022705,28.7680091 38.6951327,28.771448 C38.8993951,28.7715396 38.8993951,28.7715396 39.103597,28.7716312 C41.8700866,28.7728724 44.8097145,28.7742021 47.7330303,28.7755319 C48.7561909,28.7759974 49.7042295,28.7764295 50.5534649,28.7768174 C51.0264648,28.7770335 51.0264648,28.7770335 51.3414582,28.7771775 C51.571528,28.7772828 51.571528,28.7772828 51.6199101,28.777305 C51.7947349,28.7992434 51.875609,28.8095932 51.9644778,28.8207405 C52.2184116,28.8525928 52.4854451,28.8844457 52.7529568,28.9141692 C52.9225956,28.933018 53.0871634,28.9504107 53.2448667,28.9660458 C53.784105,29.0195071 54.2137666,29.0496454 54.4907801,29.0496454 C55.2172601,29.0496454 57.5736321,29.0342944 59.6539906,29.0099369 C62.9160586,28.9717434 65.6133302,28.9146399 67.3449333,28.8356035 C67.4235648,28.7831439 67.4753362,28.7484526 67.531094,28.7109185 C67.6903735,28.6036971 67.8496398,28.4952095 67.9981982,28.3922318 C68.333997,28.1585325 68.5388465,28.0078745 68.6222077,27.9324549 C69.2062058,27.4099302 70.477767,25.0107582 70.7995045,23.4777768 C71.3259551,20.9265164 71.6368794,18.1800178 71.6368794,16.5787234 L71.6368794,15.4326241 C71.6368794,13.252872 71.3126021,10.0836465 70.7458169,8.31824962 C70.166401,6.50625787 69.0816419,4.27605405 68.621418,3.85122903 C68.579244,3.81277624 68.5280588,3.77187869 68.4686621,3.72898753 C68.3583696,3.64934387 68.2222727,3.56456206 68.0663484,3.47682904 C67.906742,3.38702422 67.7353083,3.29904303 67.5638216,3.21668867 C67.5037669,3.18784815 67.448025,3.16178565 67.3980517,3.1389635 C66.6442316,3.0600087 64.1386097,3.01575183 60.4713701,2.98439301 C59.1551599,2.97313801 57.7716962,2.96431223 56.4230336,2.9578001 C55.5386606,2.95352983 54.6493064,2.95035461 54.4907801,2.95035461 C54.2137666,2.95035461 53.784105,2.98049288 53.2448667,3.03395422 C53.0871634,3.04958929 52.9225956,3.06698202 52.7529568,3.08583078 C52.4854451,3.11555429 52.2184116,3.1474072 51.9644778,3.17925953 C51.875609,3.19040684 51.7947349,3.20075659 51.723431,3.21004268 C51.6949377,3.21375344 43.4069855,3.21797089 26.8595745,3.22269504 C25.7507827,3.22269504 23.7802385,3.02663752 22.0518809,2.73314283 C21.3103802,2.60692994 10.6802268,2.79260948 9.31429685,3.03923448 C8.79393419,3.13568101 8.32176749,3.21853047 7.81869652,3.30277451 C7.53764318,3.34983958 6.68397331,3.48934846 6.63410868,3.4975934 C6.51514742,3.51726322 6.40771485,3.53523072 6.3046658,3.55272272 C5.33049172,3.7180833 4.51768876,3.88275162 3.36661818,4.15774553 C2.44101234,4.68456088 1.69625338,6.42433079 1.13515895,9.03919959 C1.07165679,9.33513874 1.01095298,9.64048 0.952987744,9.95442517 C0.709102141,11.2753326 0.522752078,12.6913102 0.386451401,14.1073899 C0.338738951,14.6030927 0.300695607,15.0633607 0.271373267,15.476352 C0.261115173,15.6208324 0.252681011,15.7490593 0.245952047,15.8595531 C0.243599489,15.8981835 0.241628661,15.9318264 0.240024715,15.9602968 C0.238029307,16.0021403 0.237661151,16.0240448 0.237290927,16.0563717 C0.230969127,16.6083736 0.247945727,17.3747422 0.307913504,18.2791316 C0.399931857,19.6668841 0.574237507,21.0403604 0.850300524,22.3229152 C1.37143301,24.7440325 2.20078204,26.5924485 3.38837042,27.6395556 C3.58770326,27.6807504 3.70680876,27.7055571 3.84096307,27.7336886 Z" id="Shape" fill="#000000"></path>
            <path d="M48.7943262,6.05957447 C47.5914894,5.10638298 45.4695035,5.70780142 45.4695035,5.70780142 C43.9148936,5.99148936 41.6340426,6.34326241 39.5007092,6.67234043 C40.022695,8.54468085 40.329078,13.4695035 40.329078,14.7631206 L40.329078,17.0893617 C40.329078,18.3829787 40.022695,23.3078014 39.5007092,25.1801418 C41.6340426,25.5092199 43.9148936,25.8496454 45.4695035,26.1446809 C45.4695035,26.1446809 47.6028369,26.7347518 48.7943262,25.7929078 C49.9971631,24.8397163 50.8368794,18.587234 50.8368794,17.1007092 L50.8368794,14.7744681 C50.848227,13.2652482 49.9971631,7.01276596 48.7943262,6.05957447 Z" id="Shape" fill="#000000"></path>
            <polygon id="Shape" fill="#231F20" points="45.9914894 4.31205674 45.9914894 3.33617021 45.5716312 3.09787234 44.6638298 0.295035461 45.0836879 0.0567375887 45.9120567 2.66666667 48.2836879 4.31205674"></polygon>
            <path d="M45.9574468,2.64397163 L45.151773,0.113475177 C45.412766,0.181560284 46.3205674,0.419858156 46.729078,0.873758865 C47.1716312,1.36170213 47.5574468,2.99574468 47.6141844,3.25673759 L46.9787234,3.5858156 L45.9574468,2.64397163 Z" id="Shape" fill="#FFFFFF"></path>
            <path d="M45.2085106,0.181560284 C45.5375887,0.260992908 46.3205674,0.49929078 46.6836879,0.907801418 C47.1035461,1.37304965 47.4780142,2.89361702 47.5574468,3.23404255 L46.9787234,3.54042553 L45.9914894,2.6212766 L45.2085106,0.181560284 L45.2085106,0.181560284 Z M45.0836879,0.0567375887 L45.9234043,2.66666667 L46.9673759,3.64255319 L47.6595745,3.27943262 C47.6595745,3.27943262 47.2397163,1.39574468 46.751773,0.85106383 C46.2638298,0.295035461 45.0836879,0.0567375887 45.0836879,0.0567375887 L45.0836879,0.0567375887 Z" id="Shape" fill="#231F20"></path>
            <path d="M2.54184397,8.02269504 C2.51914894,8.02269504 2.50780142,8 2.50780142,7.97730496 C2.59858156,6.63829787 2.72340426,5.02695035 2.8822695,4.98156028 L5.67375887,4.6070922 C5.67375887,4.6070922 5.67375887,4.6070922 5.68510638,4.6070922 C5.6964539,4.6070922 5.6964539,4.6070922 5.70780142,4.61843972 C5.76453901,4.65248227 6.22978723,4.94751773 6.22978723,5.1858156 C6.22978723,5.26524823 6.18439716,5.32198582 6.09361702,5.36737589 C6.05957447,5.39007092 5.98014184,5.40141844 5.8212766,5.43546099 C5.28794326,5.54893617 4.17588652,5.78723404 3.5858156,6.50212766 C2.83687943,7.39858156 2.6212766,7.98865248 2.6212766,7.98865248 C2.58723404,8.01134752 2.57588652,8.02269504 2.54184397,8.02269504 C2.55319149,8.02269504 2.55319149,8.02269504 2.54184397,8.02269504 Z" id="Shape" fill="#FF0000"></path>
            <path d="M5.67375887,4.64113475 C5.67375887,4.64113475 6.45673759,5.1177305 6.05957447,5.32198582 C5.90070922,5.40141844 4.30070922,5.56028369 3.52907801,6.46808511 C2.75744681,7.38723404 2.55319149,7.97730496 2.55319149,7.97730496 C2.55319149,7.97730496 2.73475177,5.07234043 2.89361702,5.01560284 L5.67375887,4.64113475 L5.67375887,4.64113475 Z M5.67375887,4.55035461 C5.67375887,4.55035461 5.66241135,4.55035461 5.66241135,4.55035461 L2.8822695,4.9248227 C2.8822695,4.9248227 2.87092199,4.9248227 2.87092199,4.9248227 C2.79148936,4.94751773 2.72340426,4.97021277 2.58723404,6.50212766 C2.51914894,7.22836879 2.47375887,7.95460993 2.47375887,7.96595745 C2.47375887,8.01134752 2.4964539,8.04539007 2.54184397,8.05673759 C2.55319149,8.05673759 2.55319149,8.05673759 2.56453901,8.05673759 C2.59858156,8.05673759 2.63262411,8.03404255 2.64397163,8 C2.64397163,8 2.85957447,7.40992908 3.60851064,6.5248227 C4.19858156,5.8212766 5.29929078,5.58297872 5.8212766,5.46950355 C5.99148936,5.43546099 6.05957447,5.41276596 6.10496454,5.39007092 C6.22978723,5.32198582 6.26382979,5.23120567 6.26382979,5.16312057 C6.2751773,4.90212766 5.80992908,4.6070922 5.71914894,4.55035461 C5.70780142,4.55035461 5.68510638,4.55035461 5.67375887,4.55035461 L5.67375887,4.55035461 Z" id="Shape" fill="#551413"></path>
            <path d="M15.1148936,26.5758865 C15.1148936,26.5758865 17.9744681,27.3248227 19.3134752,27.4496454 C20.6524823,27.5744681 39.4553191,28.3120567 48.9304965,27.7333333 C48.9304965,27.7333333 40.0113475,25.8950355 35.8241135,25.7702128 C31.648227,25.6680851 20.5843972,25.1914894 15.1148936,26.5758865 Z" id="Shape" fill="#000000"></path>
            <path d="M66.2453266,28.0406488 L67.2663755,28.0066144 C67.5430498,27.9959731 67.7916574,27.8479924 67.9216623,27.6204838 L67.9351277,27.6058674 C67.9458408,27.5985212 67.9684076,27.580592 68.002164,27.5498928 C68.0595419,27.4977114 68.1267733,27.4283913 68.2031881,27.3397501 C68.4228458,27.0849472 68.6711974,26.7266868 68.9428654,26.2475632 C68.981452,26.1795104 69.0198385,26.1101237 69.0580106,26.0394826 C69.3021518,25.5876767 69.5280993,25.1033596 69.7302174,24.6190145 C69.8009653,24.4494782 69.8636728,24.2920673 69.9176436,24.1508344 C69.9320621,24.1131037 69.9450546,24.0786174 69.9565825,24.0476013 L69.1792939,24.2010135 L63.2314418,27.7496383 C64.2171376,27.9766479 65.2252646,28.0739117 66.2453266,28.0406488 Z" id="Shape-Copy-2" fill="#FFFFFF"></path>
            <polygon id="Shape" fill="#231F20" points="45.9914894 27.6652482 45.9914894 28.6411348 45.5716312 28.8794326 44.6638298 31.6822695 45.0836879 31.9205674 45.9120567 29.3106383 48.2836879 27.6652482"></polygon>
            <path d="M45.9574468,29.3333333 L46.9673759,28.3914894 L47.6028369,28.7205674 C47.5460993,28.9702128 47.1489362,30.6042553 46.7177305,31.1035461 C46.3205674,31.5574468 45.412766,31.7957447 45.1404255,31.8638298 L45.9574468,29.3333333 Z" id="Shape" fill="#FFFFFF"></path>
            <path d="M46.9787234,28.448227 L47.5574468,28.7546099 C47.4780142,29.0950355 47.1035461,30.6156028 46.6836879,31.0808511 C46.3205674,31.4893617 45.5375887,31.7276596 45.2085106,31.8070922 L45.9914894,29.3673759 L46.9787234,28.448227 L46.9787234,28.448227 Z M46.9673759,28.3347518 L45.9234043,29.3106383 L45.0836879,31.9205674 C45.0836879,31.9205674 46.2638298,31.6822695 46.751773,31.1262411 C47.2397163,30.5815603 47.6595745,28.6978723 47.6595745,28.6978723 L46.9673759,28.3347518 L46.9673759,28.3347518 Z" id="Shape" fill="#231F20"></path>
            <path d="M18.541844,16.3971631 L18.541844,15.4553191 C18.541844,15.4553191 18.4851064,8.88510638 19.6539007,7.21702128 C14.9219858,7.04680851 10.9390071,6.5248227 10.9390071,6.5248227 C7.8751773,6.77446809 8.01134752,15.4553191 8.01134752,15.4553191 L8.01134752,16.3971631 C8.01134752,16.3971631 7.8751773,25.0780142 10.9390071,25.3276596 C10.9390071,25.3276596 14.9219858,24.8056738 19.6539007,24.635461 C18.4851064,22.9560284 18.541844,16.3971631 18.541844,16.3971631 Z" id="Shape" fill="#000000"></path>
            <path d="M5.66241135,27.3248227 L2.8822695,26.9503546 C2.72340426,26.893617 2.58723404,25.293617 2.50780142,23.9432624 C2.50780142,23.9205674 2.51914894,23.8978723 2.54184397,23.8978723 C2.54184397,23.8978723 2.55319149,23.8978723 2.55319149,23.8978723 C2.57588652,23.8978723 2.58723404,23.9092199 2.59858156,23.9319149 C2.59858156,23.9432624 2.8141844,24.5219858 3.56312057,25.4184397 C4.16453901,26.1333333 5.27659574,26.3716312 5.79858156,26.4851064 C5.95744681,26.5191489 6.03687943,26.541844 6.07092199,26.5531915 C6.16170213,26.5985816 6.2070922,26.6666667 6.2070922,26.7347518 C6.21843972,26.9843972 5.74184397,27.2794326 5.68510638,27.3021277 C5.68510638,27.3248227 5.68510638,27.3248227 5.66241135,27.3248227 C5.67375887,27.3248227 5.67375887,27.3248227 5.66241135,27.3248227 Z" id="Shape" fill="#FF0000"></path>
            <path d="M2.55319149,23.9432624 C2.55319149,23.9432624 2.75744681,24.5333333 3.52907801,25.4524823 C4.30070922,26.3716312 5.90070922,26.5191489 6.05957447,26.5985816 C6.45673759,26.8028369 5.67375887,27.2794326 5.67375887,27.2794326 L2.89361702,26.9049645 C2.74609929,26.8595745 2.55319149,23.9432624 2.55319149,23.9432624 L2.55319149,23.9432624 Z M2.55319149,23.8524823 C2.54184397,23.8524823 2.54184397,23.8524823 2.53049645,23.8524823 C2.48510638,23.8638298 2.46241135,23.8978723 2.46241135,23.9432624 C2.46241135,23.9546099 2.50780142,24.6808511 2.57588652,25.4070922 C2.71205674,26.9276596 2.79148936,26.9617021 2.85957447,26.9843972 C2.85957447,26.9843972 2.87092199,26.9843972 2.87092199,26.9843972 L5.65106383,27.3588652 C5.65106383,27.3588652 5.66241135,27.3588652 5.66241135,27.3588652 C5.67375887,27.3588652 5.6964539,27.3588652 5.70780142,27.3475177 C5.79858156,27.2907801 6.25248227,27.0070922 6.25248227,26.7347518 C6.25248227,26.6666667 6.21843972,26.5758865 6.09361702,26.5078014 C6.04822695,26.4851064 5.98014184,26.4737589 5.80992908,26.4283688 C5.27659574,26.3148936 4.18723404,26.0765957 3.59716312,25.3730496 C2.84822695,24.4879433 2.64397163,23.8978723 2.63262411,23.8978723 C2.63262411,23.8751773 2.59858156,23.8524823 2.55319149,23.8524823 L2.55319149,23.8524823 Z" id="Shape" fill="#551413"></path>
            <path d="M70.4567376,23.2737589 C70.4567376,23.2737589 70.5021277,23.0468085 70.5702128,22.6496454 C70.6382979,22.2524823 70.729078,21.6851064 70.8312057,21.0042553 C70.8765957,20.6638298 70.9219858,20.2893617 70.9673759,19.9035461 C71.012766,19.506383 71.0468085,19.0978723 71.0808511,18.6666667 C71.0921986,18.4510638 71.1148936,18.235461 71.1262411,18.0085106 C71.1375887,17.7929078 71.1489362,17.5659574 71.1602837,17.3390071 C71.1716312,17.1120567 71.1716312,16.8851064 71.1829787,16.658156 C71.1829787,16.4312057 71.1829787,16.2042553 71.1943262,15.9659574 C71.1943262,15.5120567 71.1943262,15.0468085 71.1716312,14.5929078 C71.1716312,14.3659574 71.1489362,14.1390071 71.1375887,13.9234043 C71.1262411,13.7078014 71.1148936,13.4808511 71.0921986,13.2652482 C71.0808511,13.0496454 71.058156,12.8453901 71.035461,12.6297872 C71.0241135,12.4255319 71.0014184,12.2212766 70.9787234,12.0283688 C70.9560284,11.835461 70.9333333,11.6425532 70.9106383,11.4609929 C70.8879433,11.2794326 70.8652482,11.0978723 70.8425532,10.9276596 C70.8198582,10.7574468 70.7971631,10.5985816 70.7744681,10.4397163 C70.751773,10.2808511 70.729078,10.1333333 70.706383,9.99716312 C70.6609929,9.7248227 70.6156028,9.48652482 70.5815603,9.2822695 C70.5021277,8.88510638 70.4453901,8.66950355 70.4453901,8.66950355 C70.4453901,8.66950355 70.5134752,8.88510638 70.6042553,9.2822695 C70.6496454,9.4751773 70.706383,9.71347518 70.751773,9.99716312 C70.8085106,10.2695035 70.8652482,10.587234 70.9106383,10.9276596 C70.9333333,11.0978723 70.9673759,11.2794326 70.9900709,11.4609929 C71.012766,11.6425532 71.0468085,11.835461 71.0695035,12.0283688 C71.0921986,12.2212766 71.1148936,12.4255319 71.1375887,12.6297872 C71.1602837,12.8340426 71.1829787,13.0496454 71.1943262,13.2652482 C71.2170213,13.4808511 71.2283688,13.6964539 71.2397163,13.9234043 C71.2510638,14.1503546 71.2624113,14.3659574 71.2737589,14.5929078 C71.2964539,15.0468085 71.2964539,15.5007092 71.3078014,15.9659574 C71.3078014,16.1929078 71.2964539,16.4312057 71.2964539,16.658156 C71.2851064,16.8851064 71.2737589,17.1120567 71.2737589,17.3390071 C71.2624113,17.5659574 71.2510638,17.7929078 71.2397163,18.0085106 C71.2283688,18.235461 71.2056738,18.4510638 71.1943262,18.6666667 C71.1602837,19.0978723 71.1148936,19.506383 71.058156,19.9035461 C71.012766,20.3007092 70.9560284,20.6638298 70.8992908,21.0042553 C70.6836879,22.377305 70.4567376,23.2737589 70.4567376,23.2737589 Z" id="Shape" fill="#231F20"></path>
        </g>
    </g>
</svg>